Coordinates
version=1
nRows=16
nColumns=33
inDegrees=yes

Units are S.I. units (second, meters, Newtons, ...)
Angles are in degrees.

endheader
time	ground_thorax_rot_x	ground_thorax_rot_y	ground_thorax_rot_z	ground_thorax_tx	ground_thorax_ty	ground_thorax_tz	clav_prot_r	clav_elev_r	scapula_abduction_r	scapula_elevation_r	scapula_upward_rot_r	scapula_winging_r	shoulder_elv_r	plane_of_elev_r	axial_rot_r	elbow_flexion_r	pro_sup_r	wrist_flex_r	wrist_dev_r	clav_prot_l	clav_elev_l	scapula_abduction_l	scapula_elevation_l	scapula_upward_rot_l	scapula_winging_l	shoulder_elv_l	plane_of_elev_l	axial_rot_l	elbow_flexion_l	pro_sup_l	wrist_flex_l	wrist_dev_l
      9.38000000	    -40.35798812	     -9.84365752	     11.43259359	   -189.85848805	    840.63033889	     -8.85174252	      4.06567140	    -45.00000000	     35.69718815	    -45.00000000	    -13.78692240	   2050.20781918	    787.98408853	     21.58102169	   -179.99999979	   1444.75637884	    -68.39904460	     20.77046306	      8.52862652	     15.21436628	     38.31206436	    -34.66427419	    -45.00000000	    -45.00000000	  -2076.90386914	  -3529.44495793	     17.58371766	    -52.56557098	   1451.16328972	   -317.76772483	      6.53501820	    -21.18524649
      9.39000000	    -40.36236066	     -9.85245081	     11.45583093	   -189.36433769	    841.03964325	     -8.72482061	      4.09178048	    -45.00000000	     35.57276409	    -45.00000000	    -13.41043089	   2050.22067815	    788.12958598	     21.68643269	   -179.99999979	   1445.01844395	    -67.53182639	     20.58573848	      8.53818364	     15.15842110	     38.16995893	    -34.82741578	    -45.00000000	    -45.00000000	  -2076.78412634	  -3529.44529767	     17.59099214	    -52.53022141	   1451.26882937	   -317.10823524	      6.48850820	    -21.30423695
      9.40000000	    -40.35013995	     -9.69809472	     11.24106260	   -188.89333436	    841.48518712	     -8.63255347	      3.98023136	    -45.00000000	     35.92404730	    -45.00000000	    -13.20641838	   2050.17950751	    788.03872191	     21.56834747	   -179.99999979	   1444.73673310	    -66.70347389	     20.98413794	      8.41989972	     15.26557600	     38.38619571	    -34.86842048	    -45.00000000	    -45.00000000	  -2076.85416121	  -3529.38165159	     17.70194701	    -52.46846126	   1451.38485653	   -316.45521327	      6.28600591	    -21.14191951
      9.41000000	    -40.37957050	     -9.79349080	     11.26901997	   -188.42886277	    841.98951447	     -8.57813088	      4.12210425	    -45.00000000	     35.77087573	    -45.00000000	    -12.76127944	   2050.18772104	    788.21937848	     21.71273882	   -179.99999979	   1445.08676935	    -65.85565261	     20.61720111	      8.45211932	     15.17495133	     38.11809302	    -34.98304677	    -45.00000000	    -45.00000000	  -2076.71885884	  -3529.34679203	     17.65443718	    -52.40253416	   1451.49519147	   -315.80864772	      6.29649659	    -21.34825715
      9.42000000	    -40.32352951	     -9.67843347	     11.13156222	   -187.95713675	    842.57600477	     -8.55981445	      4.00686491	    -45.00000000	     36.06372203	    -45.00000000	    -12.47222088	   2050.11138795	    788.24954579	     21.69944510	   -179.99999979	   1444.91857268	    -64.95128534	     21.10359641	      8.32410816	     15.18480026	     38.36163379	    -35.01030716	    -45.00000000	    -45.00000000	  -2076.81275981	  -3529.33522460	     17.75790295	    -52.21342764	   1451.57167307	   -315.12528662	      6.06172505	    -21.11826459
      9.43000000	    -40.35169077	     -9.58556994	     10.86006628	   -187.46629497	    843.27016744	     -8.57212950	      4.07391401	    -45.00000000	     36.34726104	    -45.00000000	    -12.04840745	   2050.12255812	    788.17399962	     21.59641963	   -179.99999979	   1444.74333433	    -64.17771834	     20.91057994	      8.18838913	     15.19314448	     38.18309986	    -34.99278423	    -45.00000000	    -45.00000000	  -2076.78293596	  -3529.17425976	     17.91830031	    -52.19487003	   1451.73699953	   -314.50972212	      6.07282215	    -21.34166679
      9.44000000	    -40.34547251	     -9.61006372	     10.90865134	   -186.94387228	    844.10269444	     -8.60822133	      4.07064179	    -45.00000000	     36.44675156	    -45.00000000	    -11.52101560	   2049.96374460	    788.37740195	     21.74147351	   -179.99999979	   1444.93699247	    -63.44600254	     21.41793414	      8.13633209	     15.12342006	     38.41345328	    -35.09685158	    -45.00000000	    -45.00000000	  -2076.71758325	  -3529.16409568	     17.91282583	    -51.87063313	   1451.82257946	   -313.96003110	      5.79984764	    -21.06633246
      9.45000000	    -40.35493795	     -9.43228327	     10.70382903	   -186.38882127	    845.09483611	     -8.66240710	      3.99893454	    -45.00000000	     36.59435962	    -45.00000000	    -11.12428077	   2050.10519907	    788.41483049	     21.65147093	   -179.99999979	   1444.92849429	    -62.62762532	     21.11336462	      8.03811600	     15.10665075	     38.18864101	    -35.30318783	    -45.00000000	    -45.00000000	  -2076.73404256	  -3529.10809368	     17.96188211	    -51.71916972	   1451.88652314	   -313.29094611	      5.84546636	    -21.29043054
      9.46000000	    -40.33801662	     -9.30906726	     10.49667536	   -185.80101272	    846.26347017	     -8.73056601	      3.99517080	    -45.00000000	     36.91710990	    -45.00000000	    -10.59216050	   2050.01755018	    788.46576682	     21.68739370	   -179.99999979	   1444.85861682	    -61.95151310	     21.54920974	      7.89035539	     15.09304429	     38.35495217	    -35.32283912	    -45.00000000	    -45.00000000	  -2076.75456294	  -3529.00396124	     18.13518103	    -51.49200798	   1451.98462925	   -312.70506360	      5.64816529	    -21.15515701
      9.47000000	    -40.41013708	     -9.09596379	     10.23065065	   -185.18081179	    847.62590215	     -8.80811401	      3.89112060	    -45.00000000	     36.79814335	    -45.00000000	    -10.02464190	   2050.22975282	    788.54519276	     21.68199141	   -179.99999979	   1444.88913333	    -61.28813958	     21.38083737	      7.81334330	     15.10143244	     38.10410986	    -35.60329036	    -45.00000000	    -45.00000000	  -2076.57844725	  -3528.94095445	     18.27394623	    -51.28607617	   1452.10815271	   -312.10207017	      5.62881983	    -21.30723733
      9.48000000	    -40.44697362	     -9.02826712	     10.04607342	   -184.52356192	    849.18624187	     -8.89124573	      3.66074820	    -45.00000000	     36.73674359	    -45.00000000	     -9.76316272	   2050.47444340	    788.62579133	     21.73677109	   -179.99999979	   1444.83191816	    -60.68467795	     21.84214925	      7.68939053	     15.11642560	     38.38476793	    -35.57655786	    -45.00000000	    -45.00000000	  -2076.56042646	  -3528.67987137	     18.36330573	    -50.90890312	   1452.25090172	   -311.55575725	      5.41884351	    -21.19305843
      9.49000000	    -40.39609897	     -8.94325411	     10.02466871	   -183.82110614	    850.96403644	     -8.95970404	      3.73285007	    -45.00000000	     37.13617455	    -45.00000000	     -9.31126905	   2050.33818154	    788.79737139	     21.77356877	   -179.99999979	   1444.78150470	    -59.98803811	     21.68641442	      7.60418652	     14.95720694	     38.15374198	    -36.04009042	    -45.00000000	    -45.00000000	  -2076.36825412	  -3528.69690465	     18.24252714	    -50.50295295	   1452.51282900	   -310.88863951	      5.37119402	    -21.34304477
      9.50000000	    -40.47120233	     -8.63708008	      9.61104210	   -183.05134663	    852.94905345	     -9.01495588	      3.63381859	    -45.00000000	     37.59987207	    -45.00000000	     -7.84551386	   2049.93505248	    788.81023402	     21.98458709	   -179.99999979	   1444.92977233	    -59.12506785	     21.74631228	      7.58864852	     15.44752260	     38.40915982	    -36.44562837	    -45.00000000	    -45.00000000	  -2076.04946211	  -3528.66786321	     18.49297562	    -50.38626944	   1452.67480973	   -309.98448369	      5.27146149	    -21.39871558
      9.51000000	    -40.47269478	     -8.44897604	      9.34494138	   -182.19151434	    855.13932800	     -9.05909679	      3.56600931	    -45.00000000	     37.87765396	    -45.00000000	     -7.08644262	   2049.93620858	    788.96265893	     22.07363718	   -179.99999979	   1444.87581598	    -58.45402333	     21.93128988	      7.44776645	     15.47707124	     38.45991473	    -36.65557911	    -45.00000000	    -45.00000000	  -2075.92031061	  -3528.51893518	     18.67305768	    -49.93401373	   1452.81143962	   -309.20232053	      5.14932379	    -21.42519657
      9.52000000	    -40.38562926	     -8.36730807	      9.14505081	   -181.21280593	    857.51176531	     -9.11295126	      3.31377835	    -45.00000000	     37.41973181	    -45.00000000	     -7.26487899	   2051.38200360	    789.62536283	     21.51501056	   -179.99999979	   1444.67233001	    -58.17720807	     22.39136052	      7.17496152	     14.48842954	     37.94014931	    -36.30873452	    -45.00000000	    -45.00000000	  -2076.47599704	  -3527.99360005	     18.75766392	    -48.97187740	   1452.61230950	   -308.77011797	      4.82299027	    -21.08881018
      9.53000000	    -40.47741522	     -8.23350606	      8.99700752	   -180.10305584	    860.05175871	     -9.17569857	      3.58638753	    -45.00000000	     38.25309744	    -45.00000000	     -6.02600819	   2050.38236072	    789.44825555	     22.00975509	   -179.99999979	   1444.65400646	    -58.12409253	     22.34994205	      7.18083726	     14.99090513	     38.20609206	    -37.04743465	    -45.00000000	    -45.00000000	  -2075.70675624	  -3528.02054914	     18.85036128	    -48.78323320	   1453.07700009	   -308.22740193	      4.89429477	    -21.42385566
